<svg xmlns="http://www.w3.org/2000/svg" viewBox="0 0 139.91 109.86"><defs><style>.cls-1{fill:#dff4fe;}.cls-2,.cls-6{fill:none;}.cls-2,.cls-8{stroke:#29b6f6;stroke-linecap:round;stroke-linejoin:round;stroke-width:1.5px;}.cls-3,.cls-7,.cls-8{fill:#abe1ed;}.cls-3,.cls-4,.cls-6{fill-rule:evenodd;}.cls-4,.cls-5{fill:#fff;}</style></defs><title>Branches</title><g id="Layer_2" data-name="Layer 2"><g id="Layer_1-2" data-name="Layer 1"><path class="cls-1" d="M127.22,90.21a63.29,63.29,0,1,0-114.53,0Z"/><ellipse class="cls-1" cx="68.75" cy="104.19" rx="31.66" ry="5.68"/><path class="cls-2" d="M7.91,90.47H132M.75,90.47h4m130.45,0h4"/><path class="cls-3" d="M96.66,58.18a1.24,1.24,0,0,1-1.25,1.22H91.9a1.24,1.24,0,0,1-1.25-1.22V54A1.24,1.24,0,0,1,91.9,52.8h3.51A1.24,1.24,0,0,1,96.66,54v4.16Z"/><path class="cls-3" d="M106.42,58.18a1.24,1.24,0,0,1-1.25,1.22h-3.51a1.24,1.24,0,0,1-1.25-1.22V54a1.24,1.24,0,0,1,1.25-1.22h3.51A1.24,1.24,0,0,1,106.42,54v4.16Z"/><path class="cls-3" d="M116.18,58.18a1.24,1.24,0,0,1-1.25,1.22h-3.51a1.23,1.23,0,0,1-1.24-1.22V54a1.23,1.23,0,0,1,1.24-1.22h3.51A1.24,1.24,0,0,1,116.18,54v4.16Z"/><path class="cls-3" d="M116.18,75.77A1.24,1.24,0,0,1,114.93,77h-3.51a1.23,1.23,0,0,1-1.24-1.22V71.61a1.23,1.23,0,0,1,1.24-1.22h3.51a1.24,1.24,0,0,1,1.25,1.22v4.16Z"/><path class="cls-3" d="M106.42,75.77A1.24,1.24,0,0,1,105.17,77h-3.51a1.24,1.24,0,0,1-1.25-1.22V71.61a1.24,1.24,0,0,1,1.25-1.22h3.51a1.24,1.24,0,0,1,1.25,1.22v4.16Z"/><path class="cls-3" d="M96.66,75.77A1.24,1.24,0,0,1,95.41,77H91.9a1.24,1.24,0,0,1-1.25-1.22V71.61a1.24,1.24,0,0,1,1.25-1.22h3.51a1.24,1.24,0,0,1,1.25,1.22v4.16Z"/><path class="cls-4" d="M115.73,70.67a1.26,1.26,0,0,0-.8-.28h-3.51a1.24,1.24,0,0,0-1.25,1.22v4.16a1.26,1.26,0,0,0,0,.28l5.52-5.38Z"/><path class="cls-4" d="M106,70.67a1.21,1.21,0,0,0-.79-.28h-3.51a1.24,1.24,0,0,0-1.25,1.22v4.16a1.26,1.26,0,0,0,0,.28L106,70.67Z"/><path class="cls-4" d="M96.2,70.67a1.21,1.21,0,0,0-.79-.28H91.9a1.24,1.24,0,0,0-1.25,1.22v4.16a.86.86,0,0,0,0,.28l5.51-5.38Z"/><path class="cls-4" d="M96.2,53.08a1.21,1.21,0,0,0-.79-.28H91.9A1.24,1.24,0,0,0,90.65,54v4.16a.86.86,0,0,0,0,.28l5.51-5.38Z"/><path class="cls-4" d="M106,53.08a1.21,1.21,0,0,0-.79-.28h-3.51A1.24,1.24,0,0,0,100.41,54v4.16a1.26,1.26,0,0,0,0,.28L106,53.08Z"/><path class="cls-4" d="M115.73,53.08a1.26,1.26,0,0,0-.8-.28h-3.51A1.24,1.24,0,0,0,110.17,54v4.16a1.26,1.26,0,0,0,0,.28l5.52-5.38Z"/><path class="cls-5" d="M119.44,43.27h-32a1.24,1.24,0,0,0-1.24,1.22v53h34.54v-53A1.24,1.24,0,0,0,119.44,43.27ZM96.66,75.77A1.24,1.24,0,0,1,95.41,77H91.9a1.24,1.24,0,0,1-1.25-1.22V71.61a1.24,1.24,0,0,1,1.25-1.22h3.51a1.24,1.24,0,0,1,1.25,1.22Zm0-17.59a1.24,1.24,0,0,1-1.25,1.22H91.9a1.24,1.24,0,0,1-1.25-1.22V54A1.24,1.24,0,0,1,91.9,52.8h3.51A1.24,1.24,0,0,1,96.66,54Zm9.76,17.59A1.24,1.24,0,0,1,105.17,77h-3.51a1.24,1.24,0,0,1-1.25-1.22V71.61a1.24,1.24,0,0,1,1.25-1.22h3.51a1.24,1.24,0,0,1,1.25,1.22Zm0-17.59a1.24,1.24,0,0,1-1.25,1.22h-3.51a1.24,1.24,0,0,1-1.25-1.22V54a1.24,1.24,0,0,1,1.25-1.22h3.51A1.24,1.24,0,0,1,106.42,54Zm9.76,17.59A1.24,1.24,0,0,1,114.93,77h-3.51a1.23,1.23,0,0,1-1.24-1.22V71.61a1.23,1.23,0,0,1,1.24-1.22h3.51a1.24,1.24,0,0,1,1.25,1.22Zm0-17.59a1.24,1.24,0,0,1-1.25,1.22h-3.51a1.23,1.23,0,0,1-1.24-1.22V54a1.23,1.23,0,0,1,1.24-1.22h3.51A1.24,1.24,0,0,1,116.18,54Z"/><path class="cls-2" d="M119.44,43.27h-32a1.24,1.24,0,0,0-1.24,1.22v53h34.54v-53A1.24,1.24,0,0,0,119.44,43.27ZM96.66,75.77A1.24,1.24,0,0,1,95.41,77H91.9a1.24,1.24,0,0,1-1.25-1.22V71.61a1.24,1.24,0,0,1,1.25-1.22h3.51a1.24,1.24,0,0,1,1.25,1.22Zm0-17.59a1.24,1.24,0,0,1-1.25,1.22H91.9a1.24,1.24,0,0,1-1.25-1.22V54A1.24,1.24,0,0,1,91.9,52.8h3.51A1.24,1.24,0,0,1,96.66,54Zm9.76,17.59A1.24,1.24,0,0,1,105.17,77h-3.51a1.24,1.24,0,0,1-1.25-1.22V71.61a1.24,1.24,0,0,1,1.25-1.22h3.51a1.24,1.24,0,0,1,1.25,1.22Zm0-17.59a1.24,1.24,0,0,1-1.25,1.22h-3.51a1.24,1.24,0,0,1-1.25-1.22V54a1.24,1.24,0,0,1,1.25-1.22h3.51A1.24,1.24,0,0,1,106.42,54Zm9.76,17.59A1.24,1.24,0,0,1,114.93,77h-3.51a1.23,1.23,0,0,1-1.24-1.22V71.61a1.23,1.23,0,0,1,1.24-1.22h3.51a1.24,1.24,0,0,1,1.25,1.22Zm0-17.59a1.24,1.24,0,0,1-1.25,1.22h-3.51a1.23,1.23,0,0,1-1.24-1.22V54a1.23,1.23,0,0,1,1.24-1.22h3.51A1.24,1.24,0,0,1,116.18,54Z"/><path class="cls-6" d="M122.19,65.51a1.24,1.24,0,0,1-1.25,1.22h-35a1.24,1.24,0,0,1-1.25-1.22V64.28a1.24,1.24,0,0,1,1.25-1.22h35.05a1.24,1.24,0,0,1,1.25,1.22v1.23Z"/><path class="cls-6" d="M122.19,46.94H84.64V44.49a1.24,1.24,0,0,1,1.25-1.22h35.05a1.24,1.24,0,0,1,1.25,1.22v2.45Z"/><path class="cls-6" d="M111.68,97.51H95.16V82.6a1.24,1.24,0,0,1,1.25-1.22h14a1.24,1.24,0,0,1,1.25,1.22V97.51Z"/><path class="cls-7" d="M111.68,97.51H95.16V82.6a1.24,1.24,0,0,1,1.25-1.22h14a1.24,1.24,0,0,1,1.25,1.22V97.51ZM102.6,81.38V97.51"/><path class="cls-8" d="M122.19,65.51a1.24,1.24,0,0,1-1.25,1.22h-35a1.24,1.24,0,0,1-1.25-1.22V64.28a1.24,1.24,0,0,1,1.25-1.22h35.05a1.24,1.24,0,0,1,1.25,1.22v1.23Z"/><path class="cls-8" d="M122.19,46.94H84.64V44.49a1.24,1.24,0,0,1,1.25-1.22h35.05a1.24,1.24,0,0,1,1.25,1.22v2.45Z"/><path class="cls-5" d="M95.16,97.51V82.6a1.24,1.24,0,0,1,1.25-1.22h14a1.24,1.24,0,0,1,1.25,1.22"/><path class="cls-2" d="M111.68,97.51H95.16V82.6a1.24,1.24,0,0,1,1.25-1.22h14a1.24,1.24,0,0,1,1.25,1.22V97.51ZM102.6,81.38V97.51"/><path class="cls-3" d="M30.33,58.18a1.24,1.24,0,0,1-1.25,1.22H25.57a1.24,1.24,0,0,1-1.25-1.22V54a1.24,1.24,0,0,1,1.25-1.22h3.51A1.24,1.24,0,0,1,30.33,54v4.16Z"/><path class="cls-3" d="M40.09,58.18a1.24,1.24,0,0,1-1.25,1.22H35.33a1.24,1.24,0,0,1-1.25-1.22V54a1.24,1.24,0,0,1,1.25-1.22h3.51A1.24,1.24,0,0,1,40.09,54v4.16Z"/><path class="cls-3" d="M49.85,58.18A1.24,1.24,0,0,1,48.6,59.4H45.09a1.24,1.24,0,0,1-1.25-1.22V54a1.24,1.24,0,0,1,1.25-1.22H48.6A1.24,1.24,0,0,1,49.85,54v4.16Z"/><path class="cls-3" d="M49.85,75.77A1.24,1.24,0,0,1,48.6,77H45.09a1.24,1.24,0,0,1-1.25-1.22V71.61a1.24,1.24,0,0,1,1.25-1.22H48.6a1.24,1.24,0,0,1,1.25,1.22v4.16Z"/><path class="cls-3" d="M40.09,75.77A1.24,1.24,0,0,1,38.84,77H35.33a1.24,1.24,0,0,1-1.25-1.22V71.61a1.24,1.24,0,0,1,1.25-1.22h3.51a1.24,1.24,0,0,1,1.25,1.22v4.16Z"/><path class="cls-3" d="M30.33,75.77A1.24,1.24,0,0,1,29.08,77H25.57a1.24,1.24,0,0,1-1.25-1.22V71.61a1.24,1.24,0,0,1,1.25-1.22h3.51a1.24,1.24,0,0,1,1.25,1.22v4.16Z"/><path class="cls-4" d="M49.39,70.67a1.21,1.21,0,0,0-.79-.28H45.09a1.24,1.24,0,0,0-1.25,1.22v4.16a1.26,1.26,0,0,0,0,.28l5.51-5.38Z"/><path class="cls-4" d="M39.63,70.67a1.21,1.21,0,0,0-.79-.28H35.33a1.24,1.24,0,0,0-1.25,1.22v4.16a.86.86,0,0,0,0,.28l5.51-5.38Z"/><path class="cls-4" d="M29.87,70.67a1.21,1.21,0,0,0-.79-.28H25.57a1.24,1.24,0,0,0-1.25,1.22v4.16a1.27,1.27,0,0,0,0,.28l5.52-5.38Z"/><path class="cls-4" d="M29.87,53.08a1.21,1.21,0,0,0-.79-.28H25.57A1.24,1.24,0,0,0,24.32,54v4.16a1.27,1.27,0,0,0,0,.28l5.52-5.38Z"/><path class="cls-4" d="M39.63,53.08a1.21,1.21,0,0,0-.79-.28H35.33A1.24,1.24,0,0,0,34.08,54v4.16a.86.86,0,0,0,0,.28l5.51-5.38Z"/><path class="cls-4" d="M49.39,53.08a1.21,1.21,0,0,0-.79-.28H45.09A1.24,1.24,0,0,0,43.84,54v4.16a1.26,1.26,0,0,0,0,.28l5.51-5.38Z"/><path class="cls-5" d="M53.11,43.27h-32a1.24,1.24,0,0,0-1.25,1.22v53H54.36v-53A1.24,1.24,0,0,0,53.11,43.27ZM30.33,75.77A1.24,1.24,0,0,1,29.08,77H25.57a1.24,1.24,0,0,1-1.25-1.22V71.61a1.24,1.24,0,0,1,1.25-1.22h3.51a1.24,1.24,0,0,1,1.25,1.22Zm0-17.59a1.24,1.24,0,0,1-1.25,1.22H25.57a1.24,1.24,0,0,1-1.25-1.22V54a1.24,1.24,0,0,1,1.25-1.22h3.51A1.24,1.24,0,0,1,30.33,54Zm9.76,17.59A1.24,1.24,0,0,1,38.84,77H35.33a1.24,1.24,0,0,1-1.25-1.22V71.61a1.24,1.24,0,0,1,1.25-1.22h3.51a1.24,1.24,0,0,1,1.25,1.22Zm0-17.59a1.24,1.24,0,0,1-1.25,1.22H35.33a1.24,1.24,0,0,1-1.25-1.22V54a1.24,1.24,0,0,1,1.25-1.22h3.51A1.24,1.24,0,0,1,40.09,54Zm9.76,17.59A1.24,1.24,0,0,1,48.6,77H45.09a1.24,1.24,0,0,1-1.25-1.22V71.61a1.24,1.24,0,0,1,1.25-1.22H48.6a1.24,1.24,0,0,1,1.25,1.22Zm0-17.59A1.24,1.24,0,0,1,48.6,59.4H45.09a1.24,1.24,0,0,1-1.25-1.22V54a1.24,1.24,0,0,1,1.25-1.22H48.6A1.24,1.24,0,0,1,49.85,54Z"/><path class="cls-2" d="M53.11,43.27h-32a1.24,1.24,0,0,0-1.25,1.22v53H54.36v-53A1.24,1.24,0,0,0,53.11,43.27ZM30.33,75.77A1.24,1.24,0,0,1,29.08,77H25.57a1.24,1.24,0,0,1-1.25-1.22V71.61a1.24,1.24,0,0,1,1.25-1.22h3.51a1.24,1.24,0,0,1,1.25,1.22Zm0-17.59a1.24,1.24,0,0,1-1.25,1.22H25.57a1.24,1.24,0,0,1-1.25-1.22V54a1.24,1.24,0,0,1,1.25-1.22h3.51A1.24,1.24,0,0,1,30.33,54Zm9.76,17.59A1.24,1.24,0,0,1,38.84,77H35.33a1.24,1.24,0,0,1-1.25-1.22V71.61a1.24,1.24,0,0,1,1.25-1.22h3.51a1.24,1.24,0,0,1,1.25,1.22Zm0-17.59a1.24,1.24,0,0,1-1.25,1.22H35.33a1.24,1.24,0,0,1-1.25-1.22V54a1.24,1.24,0,0,1,1.25-1.22h3.51A1.24,1.24,0,0,1,40.09,54Zm9.76,17.59A1.24,1.24,0,0,1,48.6,77H45.09a1.24,1.24,0,0,1-1.25-1.22V71.61a1.24,1.24,0,0,1,1.25-1.22H48.6a1.24,1.24,0,0,1,1.25,1.22Zm0-17.59A1.24,1.24,0,0,1,48.6,59.4H45.09a1.24,1.24,0,0,1-1.25-1.22V54a1.24,1.24,0,0,1,1.25-1.22H48.6A1.24,1.24,0,0,1,49.85,54Z"/><path class="cls-6" d="M55.86,65.51a1.24,1.24,0,0,1-1.25,1.22h-35a1.24,1.24,0,0,1-1.25-1.22V64.28a1.24,1.24,0,0,1,1.25-1.22H54.61a1.24,1.24,0,0,1,1.25,1.22v1.23Z"/><path class="cls-6" d="M55.86,46.94H18.31V44.49a1.24,1.24,0,0,1,1.25-1.22H54.61a1.24,1.24,0,0,1,1.25,1.22v2.45Z"/><path class="cls-6" d="M45.34,97.51H28.83V82.6a1.23,1.23,0,0,1,1.24-1.22h14a1.23,1.23,0,0,1,1.24,1.22V97.51Z"/><path class="cls-7" d="M45.34,97.51H28.83V82.6a1.23,1.23,0,0,1,1.24-1.22h14a1.23,1.23,0,0,1,1.24,1.22V97.51ZM36.27,81.38V97.51"/><path class="cls-8" d="M55.86,65.51a1.24,1.24,0,0,1-1.25,1.22h-35a1.24,1.24,0,0,1-1.25-1.22V64.28a1.24,1.24,0,0,1,1.25-1.22H54.61a1.24,1.24,0,0,1,1.25,1.22v1.23Z"/><path class="cls-8" d="M55.86,46.94H18.31V44.49a1.24,1.24,0,0,1,1.25-1.22H54.61a1.24,1.24,0,0,1,1.25,1.22v2.45Z"/><path class="cls-5" d="M28.83,97.51V82.6a1.23,1.23,0,0,1,1.24-1.22h14a1.23,1.23,0,0,1,1.24,1.22"/><path class="cls-2" d="M45.34,97.51H28.83V82.6a1.23,1.23,0,0,1,1.24-1.22h14a1.23,1.23,0,0,1,1.24,1.22V97.51ZM36.27,81.38V97.51"/><path class="cls-3" d="M60,46.37a1.82,1.82,0,0,1-1.85,1.8H53a1.81,1.81,0,0,1-1.84-1.8V40.23A1.82,1.82,0,0,1,53,38.43h5.18A1.83,1.83,0,0,1,60,40.23v6.14Z"/><path class="cls-3" d="M74.39,46.37a1.81,1.81,0,0,1-1.84,1.8H67.36a1.81,1.81,0,0,1-1.84-1.8V40.23a1.82,1.82,0,0,1,1.84-1.8h5.19a1.82,1.82,0,0,1,1.84,1.8v6.14Z"/><path class="cls-3" d="M88.8,46.37A1.81,1.81,0,0,1,87,48.17H81.78a1.82,1.82,0,0,1-1.85-1.8V40.23a1.83,1.83,0,0,1,1.85-1.8H87a1.82,1.82,0,0,1,1.84,1.8v6.14Z"/><path class="cls-3" d="M88.8,72.35A1.82,1.82,0,0,1,87,74.15H81.78a1.83,1.83,0,0,1-1.85-1.8V66.2a1.82,1.82,0,0,1,1.85-1.79H87A1.81,1.81,0,0,1,88.8,66.2v6.15Z"/><path class="cls-3" d="M74.39,72.35a1.82,1.82,0,0,1-1.84,1.8H67.36a1.82,1.82,0,0,1-1.84-1.8V66.2a1.81,1.81,0,0,1,1.84-1.79h5.19a1.81,1.81,0,0,1,1.84,1.79v6.15Z"/><path class="cls-3" d="M60,72.35a1.83,1.83,0,0,1-1.85,1.8H53a1.82,1.82,0,0,1-1.84-1.8V66.2A1.81,1.81,0,0,1,53,64.41h5.18A1.82,1.82,0,0,1,60,66.2v6.15Z"/><path class="cls-4" d="M88.13,64.82A1.85,1.85,0,0,0,87,64.41H81.78a1.82,1.82,0,0,0-1.85,1.79v6.15a2,2,0,0,0,0,.42l8.15-8Z"/><path class="cls-4" d="M73.72,64.82a1.85,1.85,0,0,0-1.17-.41H67.36a1.81,1.81,0,0,0-1.84,1.79v6.15a2,2,0,0,0,0,.42l8.15-8Z"/><path class="cls-4" d="M59.3,64.82a1.83,1.83,0,0,0-1.17-.41H53a1.81,1.81,0,0,0-1.84,1.79v6.15a1.51,1.51,0,0,0,0,.42l8.14-8Z"/><path class="cls-4" d="M59.3,38.84a1.89,1.89,0,0,0-1.17-.41H53a1.82,1.82,0,0,0-1.84,1.8v6.14a1.42,1.42,0,0,0,0,.42l8.14-7.95Z"/><path class="cls-4" d="M73.72,38.84a1.91,1.91,0,0,0-1.17-.41H67.36a1.82,1.82,0,0,0-1.84,1.8v6.14a1.86,1.86,0,0,0,0,.42l8.15-7.95Z"/><path class="cls-4" d="M88.13,38.84A1.91,1.91,0,0,0,87,38.43H81.78a1.83,1.83,0,0,0-1.85,1.8v6.14a1.86,1.86,0,0,0,0,.42l8.15-7.95Z"/><path class="cls-5" d="M93.61,24.36H46.29a1.83,1.83,0,0,0-1.84,1.8v78.29h51V26.16A1.83,1.83,0,0,0,93.61,24.36ZM60,72.35a1.83,1.83,0,0,1-1.85,1.8H53a1.82,1.82,0,0,1-1.84-1.8V66.2A1.81,1.81,0,0,1,53,64.41h5.18A1.82,1.82,0,0,1,60,66.2Zm0-26a1.82,1.82,0,0,1-1.85,1.8H53a1.81,1.81,0,0,1-1.84-1.8V40.23A1.82,1.82,0,0,1,53,38.43h5.18A1.83,1.83,0,0,1,60,40.23Zm14.41,26a1.82,1.82,0,0,1-1.84,1.8H67.36a1.82,1.82,0,0,1-1.84-1.8V66.2a1.81,1.81,0,0,1,1.84-1.79h5.19a1.81,1.81,0,0,1,1.84,1.79Zm0-26a1.81,1.81,0,0,1-1.84,1.8H67.36a1.81,1.81,0,0,1-1.84-1.8V40.23a1.82,1.82,0,0,1,1.84-1.8h5.19a1.82,1.82,0,0,1,1.84,1.8Zm14.41,26A1.82,1.82,0,0,1,87,74.15H81.78a1.83,1.83,0,0,1-1.85-1.8V66.2a1.82,1.82,0,0,1,1.85-1.79H87A1.81,1.81,0,0,1,88.8,66.2Zm0-26A1.81,1.81,0,0,1,87,48.17H81.78a1.82,1.82,0,0,1-1.85-1.8V40.23a1.83,1.83,0,0,1,1.85-1.8H87a1.82,1.82,0,0,1,1.84,1.8Z"/><path class="cls-2" d="M93.61,24.36H46.29a1.83,1.83,0,0,0-1.84,1.8v78.29h51V26.16A1.83,1.83,0,0,0,93.61,24.36ZM60,72.35a1.83,1.83,0,0,1-1.85,1.8H53a1.82,1.82,0,0,1-1.84-1.8V66.2A1.81,1.81,0,0,1,53,64.41h5.18A1.82,1.82,0,0,1,60,66.2Zm0-26a1.82,1.82,0,0,1-1.85,1.8H53a1.81,1.81,0,0,1-1.84-1.8V40.23A1.82,1.82,0,0,1,53,38.43h5.18A1.83,1.83,0,0,1,60,40.23Zm14.41,26a1.82,1.82,0,0,1-1.84,1.8H67.36a1.82,1.82,0,0,1-1.84-1.8V66.2a1.81,1.81,0,0,1,1.84-1.79h5.19a1.81,1.81,0,0,1,1.84,1.79Zm0-26a1.81,1.81,0,0,1-1.84,1.8H67.36a1.81,1.81,0,0,1-1.84-1.8V40.23a1.82,1.82,0,0,1,1.84-1.8h5.19a1.82,1.82,0,0,1,1.84,1.8Zm14.41,26A1.82,1.82,0,0,1,87,74.15H81.78a1.83,1.83,0,0,1-1.85-1.8V66.2a1.82,1.82,0,0,1,1.85-1.79H87A1.81,1.81,0,0,1,88.8,66.2Zm0-26A1.81,1.81,0,0,1,87,48.17H81.78a1.82,1.82,0,0,1-1.85-1.8V40.23a1.83,1.83,0,0,1,1.85-1.8H87a1.82,1.82,0,0,1,1.84,1.8Z"/><path class="cls-6" d="M97.67,57.2A1.82,1.82,0,0,1,95.83,59H44.08a1.83,1.83,0,0,1-1.85-1.8V55.38a1.83,1.83,0,0,1,1.85-1.8H95.83a1.82,1.82,0,0,1,1.84,1.8V57.2Z"/><path class="cls-6" d="M97.67,29.77H42.23V26.16a1.83,1.83,0,0,1,1.85-1.8H95.83a1.82,1.82,0,0,1,1.84,1.8v3.61Z"/><path class="cls-6" d="M82.15,104.45H57.76v-22a1.81,1.81,0,0,1,1.84-1.8H80.31a1.81,1.81,0,0,1,1.84,1.8v22Z"/><path class="cls-7" d="M82.15,104.45H57.76v-22a1.82,1.82,0,0,1,1.84-1.8H80.31a1.82,1.82,0,0,1,1.84,1.8v22ZM68.75,80.64v23.81"/><path class="cls-8" d="M97.67,57.2A1.82,1.82,0,0,1,95.83,59H44.08a1.83,1.83,0,0,1-1.85-1.8V55.38a1.83,1.83,0,0,1,1.85-1.8H95.83a1.82,1.82,0,0,1,1.84,1.8V57.2Z"/><path class="cls-8" d="M97.67,29.77H42.23V26.16a1.83,1.83,0,0,1,1.85-1.8H95.83a1.82,1.82,0,0,1,1.84,1.8v3.61Z"/><path class="cls-5" d="M57.76,104.45v-22a1.82,1.82,0,0,1,1.84-1.8H80.31a1.82,1.82,0,0,1,1.84,1.8"/><path class="cls-2" d="M82.15,104.45H57.76v-22a1.81,1.81,0,0,1,1.84-1.8H80.31a1.81,1.81,0,0,1,1.84,1.8v22ZM68.75,80.64v23.81"/></g></g></svg>