<svg xmlns="http://www.w3.org/2000/svg" viewBox="0 0 156.04 114.9"><defs><style>.cls-1,.cls-6{fill:#dff4fe;}.cls-1{isolation:isolate;}.cls-2,.cls-5,.cls-8{fill:none;}.cls-2,.cls-5,.cls-7{stroke:#29b6f6;stroke-width:1.5px;}.cls-2{stroke-linecap:round;stroke-linejoin:round;}.cls-3,.cls-7{fill:#fff;}.cls-4{fill:#abe1ed;}.cls-8{stroke:#b4dde8;stroke-linecap:square;}.cls-9{fill:#29b6f6;}</style></defs><title>ActiveLoan</title><g id="Layer_2" data-name="Layer 2"><g id="Layer_1-2" data-name="Layer 1"><path id="Fill-1" class="cls-1" d="M141.56,63.8a63.65,63.65,0,1,0-127.3,0A62.41,62.41,0,0,0,20,90.1H136a63.91,63.91,0,0,0,5.6-26.3"/><path id="Stroke-3" class="cls-2" d="M15.06,90.1h124.2"/><path id="Stroke-5" class="cls-2" d="M7.86,90.1h4"/><path id="Stroke-7" class="cls-2" d="M142.36,90.1h4"/><path id="Fill-39" class="cls-3" d="M45.16,46.2A1.71,1.71,0,0,1,44,48.3l-35.4,10a1.71,1.71,0,0,1-2.1-1.2l-5.7-20a1.74,1.74,0,0,1,1.3-1.9l35.4-10a1.71,1.71,0,0,1,2.1,1.2Z"/><path id="Fill-41" class="cls-3" d="M39.56,41.2l-2.2-7.7a4.09,4.09,0,0,1-5-2.8L9.26,37.3a4,4,0,0,1-2.8,5L8.66,50a4.09,4.09,0,0,1,5,2.8l23.2-6.6a3.94,3.94,0,0,1,2.7-5"/><path id="Fill-43" class="cls-4" d="M26.86,40.6a4.05,4.05,0,1,1-5-2.8,4.16,4.16,0,0,1,5,2.8"/><path id="Stroke-45" class="cls-2" d="M26.86,40.6a4.05,4.05,0,1,1-5-2.8A4.16,4.16,0,0,1,26.86,40.6Z"/><path id="Stroke-47" class="cls-2" d="M39.56,41.2l-2.2-7.7a4.09,4.09,0,0,1-5-2.8L9.26,37.3a4,4,0,0,1-2.8,5L8.66,50a4.09,4.09,0,0,1,5,2.8l23.2-6.6A3.94,3.94,0,0,1,39.56,41.2Z"/><path id="Stroke-49" class="cls-2" d="M45.16,46.2A1.71,1.71,0,0,1,44,48.3l-35.4,10a1.71,1.71,0,0,1-2.1-1.2l-5.7-20a1.74,1.74,0,0,1,1.3-1.9l35.4-10a1.71,1.71,0,0,1,2.1,1.2Z"/><path id="Fill-51" class="cls-3" d="M146.26,57.9,118,49.8a3.33,3.33,0,0,1-2.3-4.1l4.8-16.7a3.33,3.33,0,0,1,4.1-2.3l28.3,8.1a3.33,3.33,0,0,1,2.3,4.1l-4.8,16.7a3.33,3.33,0,0,1-4.1,2.3"/><polygon id="Fill-53" class="cls-4" points="153.86 43.4 119.16 33.4 120.26 29.5 154.96 39.5 153.86 43.4"/><path id="Stroke-55" class="cls-2" d="M119.66,46.1l9.6,2.8"/><polygon id="Fill-57" class="cls-3" points="147.76 50 120.76 42.2 121.86 38.4 148.86 46.1 147.76 50"/><path id="Stroke-59" class="cls-2" d="M146.26,57.9,118,49.8a3.33,3.33,0,0,1-2.3-4.1l4.8-16.7a3.33,3.33,0,0,1,4.1-2.3l28.3,8.1a3.33,3.33,0,0,1,2.3,4.1l-4.8,16.7A3.33,3.33,0,0,1,146.26,57.9Z"/><polygon id="Stroke-61" class="cls-2" points="153.86 43.4 119.16 33.4 120.26 29.5 154.96 39.5 153.86 43.4"/><polygon id="Stroke-63" class="cls-2" points="147.76 50 120.76 42.2 121.86 38.4 148.86 46.1 147.76 50"/><path id="Fill-65" class="cls-4" d="M91.56,26.2a13.4,13.4,0,1,1-13.4-13.4,13.4,13.4,0,0,1,13.4,13.4"/><path id="Fill-67" class="cls-3" d="M78.26,12.8a13.4,13.4,0,0,0-13.4,13.4,13.64,13.64,0,0,0,3.9,9.5l18.9-18.9a12.91,12.91,0,0,0-9.4-4"/><path id="Stroke-69" class="cls-5" d="M91.56,26.2a13.4,13.4,0,1,1-13.4-13.4A13.4,13.4,0,0,1,91.56,26.2Z"/><path id="Stroke-71" class="cls-2" d="M78.26,32.9v1.7"/><path id="Stroke-73" class="cls-2" d="M78.26,17.9v1.7"/><path id="Stroke-75" class="cls-2" d="M74.86,29.6a3.3,3.3,0,1,0,3.3-3.3,3.3,3.3,0,1,1,3.3-3.3"/><path id="Fill-68" class="cls-6" d="M115.56,110.5c0,2.4-16.7,4.4-37.3,4.4s-37.3-2-37.3-4.4,16.7-4.4,37.3-4.4,37.3,1.9,37.3,4.4"/><path id="Fill-27" class="cls-3" d="M105.56,108.7H50.86a3.76,3.76,0,0,1-3.7-3.7V67.9h62.1V105a3.69,3.69,0,0,1-3.7,3.7"/><path id="Stroke-29" class="cls-2" d="M105.56,108.7H50.86a3.76,3.76,0,0,1-3.7-3.7V67.9h62.1V105A3.69,3.69,0,0,1,105.56,108.7Z"/><path id="Fill-31" class="cls-3" d="M109.26,67.9H47.16V58.7a3.69,3.69,0,0,1,3.7-3.7h54.6a3.76,3.76,0,0,1,3.7,3.7v9.2Z"/><circle id="Oval" class="cls-7" cx="53.96" cy="61.4" r="2.2"/><circle id="Oval-Copy" class="cls-7" cx="61.26" cy="61.4" r="2.2"/><circle id="Oval-Copy-2" class="cls-7" cx="68.46" cy="61.4" r="2.2"/><path id="Line" class="cls-8" d="M51.76,102.6h52.3"/><path id="Line-Copy" class="cls-8" d="M51.76,93.8h52.3"/><path id="Line-Copy-2" class="cls-8" d="M51.76,85.1h52.3"/><path id="Line-Copy-3" class="cls-8" d="M51.76,76.4h52.3"/><polyline id="Path-2" class="cls-5" points="52.46 102.6 58.26 94.6 61.16 98.9 69.86 85.9 77.16 93.1 84.46 80 93.16 85.9 100.36 75.7"/><polygon id="Rectangle-3" class="cls-9" points="94.16 75.6 101.16 74.2 102.46 81.2 94.16 75.6"/><path id="Stroke-33" class="cls-2" d="M109.26,67.9H47.16V58.7a3.69,3.69,0,0,1,3.7-3.7h54.6a3.76,3.76,0,0,1,3.7,3.7l.1,9.2Z"/></g></g></svg>