<?xml version="1.0" encoding="UTF-8"?>
<svg width="138px" height="54px" viewBox="0 0 138 54" version="1.1" xmlns="http://www.w3.org/2000/svg" xmlns:xlink="http://www.w3.org/1999/xlink">
    <title>Combined Shape</title>
    <g id="Page-1" stroke="none" stroke-width="1" fill="none" fill-rule="evenodd">
        <path d="M54.5277,22.3733 L54.5457,22.4773 C54.7887,23.9263 54.9167,25.4143 54.9167,26.9303 C54.9167,40.1523 45.3217,51.1863 32.6917,53.5183 C32.6797,53.4483 32.6677,53.3763 32.6557,53.3013 L32.6193096,53.0821885 C32.5942978,52.9315926 32.5678006,52.7720594 32.5399231,52.6042226 L32.4055129,51.795048 C32.0400253,49.5948561 31.5128694,46.4222713 30.9840496,43.2413452 L30.846164,42.4119831 C30.6625469,41.307605 30.4804117,40.2123598 30.3064917,39.1668157 L30.1776972,38.3926106 C29.6695223,35.3381369 29.2504332,32.8222527 29.1022253,31.9403017 L29.0709219,31.7544881 L29.0709219,31.7544881 L29.0597,31.6883 L29.0597,31.6883 L29.003194,31.3468089 C28.7754695,29.9227513 28.6744407,28.5121889 29.8337,28.1733 C30.0111444,28.1245222 30.1749222,28.099337 30.3264147,28.094193 L30.4738632,28.0955978 C31.5736904,28.1555675 31.9784778,29.3239296 32.3107,30.0003 C32.4712882,30.3272412 32.9599561,31.3228882 33.4792925,32.3811093 L33.7028759,32.8366965 C34.3740564,34.2043484 35.0257,35.5323 35.0257,35.5323 C35.0257,35.5323 36.830342,39.4947691 41.1883118,39.5269008 L41.4640163,39.5237201 C41.9290875,39.5096515 42.4220333,39.4511519 42.9437,39.3393 C48.5787,38.1313 51.8257,34.8753 51.8257,25.8303 C51.8257,23.3613 53.8197,22.5833 54.3137,22.4283 C54.3837,22.4063 54.5277,22.3733 54.5277,22.3733 L54.5277,22.3733 Z M1.1398,22.3733 C1.1398,22.3733 1.2838,22.4063 1.3538,22.4283 C1.8478,22.5833 3.8418,23.3613 3.8418,25.8303 C3.8418,34.8753 7.0888,38.1313 12.7238,39.3393 C13.3498,39.4735222 13.934442,39.5309173 14.4791882,39.5269008 L14.7482434,39.5198463 C18.4686613,39.351435 20.2461294,36.2997535 20.5822089,35.6523655 L20.6323467,35.5523669 C20.6386669,35.5391793 20.6418,35.5323 20.6418,35.5323 C20.6418,35.5323 21.2934436,34.2043484 21.9646241,32.8366965 L22.1882075,32.3811093 C22.7075439,31.3228882 23.1962118,30.3272412 23.3568,30.0003 C23.7034667,29.2945222 24.1291457,28.0530407 25.3410853,28.094193 L25.496724,28.106149 C25.6032815,28.1187486 25.7155037,28.1407815 25.8338,28.1733 C27.0868,28.5393 26.8678,30.1553 26.6078,31.6883 L26.5652803,31.9403017 C26.4171022,32.8222527 25.9981565,35.3381369 25.4901506,38.3926106 L25.3613988,39.1668157 C25.1875364,40.2123598 25.0054608,41.307605 24.821902,42.4119831 L24.6840599,43.2413452 C24.1554056,46.4222713 23.6283982,49.5948561 23.2629651,51.795048 L23.1285712,52.6042226 C23.0867587,52.8559778 23.04805,53.08905 23.0128,53.3013 L22.993925,53.411675 L22.993925,53.411675 L22.9758,53.5183 L22.9758,53.5183 C10.3458,51.1863 0.7508,40.1523 0.7508,26.9303 C0.7508,25.4143 0.8798,23.9263 1.1218,22.4773 L1.1398,22.3733 Z M115.1196,37.7205 C115.6576,37.7205 116.1466,37.8105 116.5876,37.9915 C117.0286,38.1725 117.4056,38.4195 117.7186,38.7345 C118.0326,39.0485 118.2746,39.4195 118.4476,39.8465 C118.6196,40.2745 118.7056,40.7345 118.7056,41.2285 C118.7056,41.7255 118.6196,42.1875 118.4476,42.6145 C118.2746,43.0425 118.0326,43.4135 117.7186,43.7295 C117.4056,44.0455 117.0286,44.2935 116.5876,44.4725 C116.2201,44.6216667 115.819267,44.7090278 115.384521,44.7340046 L115.1196,44.7415 L115.1196,44.7415 C114.5826,44.7415 114.0916,44.6515 113.6496,44.4725 C113.2066,44.2935 112.8286,44.0455 112.5136,43.7295 C112.1986,43.4135 111.9556,43.0425 111.7836,42.6145 C111.6106,42.1875 111.5246,41.7255 111.5246,41.2285 C111.5246,40.7315 111.6106,40.2695 111.7836,39.8425 C111.9556,39.4145 112.1986,39.0435 112.5136,38.7295 C112.8286,38.4155 113.2066,38.1685 113.6496,37.9895 C114.0916,37.8095 114.5826,37.7205 115.1196,37.7205 Z M135.3682,37.7956 L135.3682,43.3926 L137.9292,43.3926 L137.9292,44.6656 L133.7642,44.6656 L133.7642,37.7956 L135.3682,37.7956 Z M63.597,37.796 L63.597,44.666 L61.984,44.666 L61.984,37.796 L63.597,37.796 Z M110.586,37.796 L110.586,44.666 L108.973,44.666 L108.973,37.796 L110.586,37.796 Z M108.1621,37.7954 L108.1621,39.0594 L106.2171,39.0594 L106.2171,44.6654 L104.6141,44.6654 L104.6141,39.0594 L102.6691,39.0594 L102.6691,37.7954 L108.1621,37.7954 Z M100.649,37.7955 L103.324,44.6655 L102.082,44.6655 C101.942,44.6655 101.83,44.6335 101.745,44.5685 C101.659,44.5045 101.594,44.4225 101.55,44.3215 L101.142,43.1235 L98.514,43.1235 L98.107,44.3215 C98.072,44.4095 98.01,44.4885 97.919,44.5595 C97.8515,44.61275 97.7721875,44.64575 97.6806406,44.6589219 L97.585,44.6655 L97.585,44.6655 L96.333,44.6655 L99.008,37.7955 L100.649,37.7955 Z M120.4936,37.7959 C120.5636,37.7959 120.6216,37.7989 120.6696,37.8049 C120.7166,37.8119 120.7596,37.8239 120.7976,37.8409 C120.8356,37.8579 120.8716,37.8829 120.9066,37.9139 C120.9416,37.9449 120.9806,37.9879 121.0256,38.0409 L124.3116,42.1669 C124.2956,42.0349 124.2856,41.9069 124.2786,41.7829 C124.2726,41.6579 124.2696,41.5409 124.2696,41.4309 L124.2696,37.7959 L125.6826,37.7959 L125.6826,44.6659 L124.8486,44.6659 C124.7246,44.6659 124.6206,44.6459 124.5376,44.6069 C124.4536,44.5669 124.3706,44.4989 124.2886,44.4019 L121.0296,40.3039 C121.0426,40.4269 121.0506,40.5459 121.0556,40.6599 C121.0606,40.7749 121.0626,40.8829 121.0626,40.9829 L121.0626,44.6659 L119.6496,44.6659 L119.6496,37.7959 L120.4936,37.7959 Z M82.5303,37.7959 L82.5303,39.0219 L79.6943,39.0219 L79.6943,40.6249 L81.8663,40.6249 L81.8663,41.8039 L79.6943,41.8039 L79.6943,43.4399 L82.5303,43.4399 L82.5303,44.6659 L78.0813,44.6659 L78.0813,37.7959 L82.5303,37.7959 Z M77.2705,37.7954 L77.2705,39.0594 L75.3255,39.0594 L75.3255,44.6654 L73.7225,44.6654 L73.7225,39.0594 L71.7785,39.0594 L71.7785,37.7954 L77.2705,37.7954 Z M130.5445,37.7955 L133.2195,44.6655 L131.9765,44.6655 C131.8375,44.6655 131.7255,44.6335 131.6395,44.5685 C131.5545,44.5045 131.4895,44.4225 131.4455,44.3215 L131.0375,43.1235 L128.4095,43.1235 L128.0015,44.3215 C127.9675,44.4095 127.9045,44.4885 127.8145,44.5595 C127.747,44.61275 127.667688,44.64575 127.576141,44.6589219 L127.4805,44.6655 L127.4805,44.6655 L126.2285,44.6655 L128.9035,37.7955 L130.5445,37.7955 Z M85.7649,37.7955 C86.2649,37.7955 86.6909,37.8475 87.0439,37.9495 C87.3959,38.0515 87.6839,38.1935 87.9069,38.3755 C88.1299,38.5585 88.2919,38.7735 88.3929,39.0215 C88.4939,39.2705 88.5449,39.5405 88.5449,39.8325 C88.5449,40.0565 88.5149,40.2665 88.4549,40.4645 C88.3949,40.6625 88.3059,40.8455 88.1889,41.0135 C88.0719,41.1815 87.9279,41.3325 87.7549,41.4645 C87.5829,41.5965 87.3839,41.7045 87.1599,41.7895 C87.2649,41.8425 87.3619,41.9095 87.4539,41.9895 C87.5459,42.0705 87.6279,42.1655 87.7009,42.2755 L89.1709,44.6655 L87.7199,44.6655 C87.4509,44.6655 87.2579,44.5655 87.1409,44.3635 L85.9929,42.3695 C85.9399,42.2845 85.8789,42.2225 85.8129,42.1835 C85.7469,42.1435 85.6519,42.1245 85.5279,42.1245 L85.1209,42.1245 L85.1209,44.6655 L83.5169,44.6655 L83.5169,37.7955 L85.7649,37.7955 Z M65.778,37.7959 C65.848,37.7959 65.906,37.7989 65.954,37.8049 C66.001,37.8119 66.044,37.8239 66.082,37.8409 C66.12,37.8579 66.156,37.8829 66.191,37.9139 C66.226,37.9449 66.265,37.9879 66.31,38.0409 L69.596,42.1669 C69.58,42.0349 69.569,41.9069 69.563,41.7829 C69.557,41.6579 69.554,41.5409 69.554,41.4309 L69.554,37.7959 L70.967,37.7959 L70.967,44.6659 L70.132,44.6659 C70.009,44.6659 69.905,44.6459 69.821,44.6069 C69.738,44.5669 69.655,44.4989 69.572,44.4019 L66.314,40.3039 C66.327,40.4269 66.335,40.5459 66.34,40.6599 C66.345,40.7749 66.347,40.8829 66.347,40.9829 L66.347,44.6659 L64.934,44.6659 L64.934,37.7959 L65.778,37.7959 Z M90.5984,37.7959 C90.6684,37.7959 90.7264,37.7989 90.7744,37.8049 C90.8214,37.8119 90.8644,37.8239 90.9024,37.8409 C90.9394,37.8579 90.9764,37.8829 91.0114,37.9139 C91.0464,37.9449 91.0854,37.9879 91.1294,38.0409 L94.4164,42.1669 C94.4004,42.0349 94.3894,41.9069 94.3834,41.7829 C94.3774,41.6579 94.3744,41.5409 94.3744,41.4309 L94.3744,37.7959 L95.7874,37.7959 L95.7874,44.6659 L94.9524,44.6659 C94.8294,44.6659 94.7254,44.6459 94.6414,44.6069 C94.5584,44.5669 94.4754,44.4989 94.3934,44.4019 L91.1344,40.3039 C91.1474,40.4269 91.1554,40.5459 91.1604,40.6599 C91.1654,40.7749 91.1674,40.8829 91.1674,40.9829 L91.1674,44.6659 L89.7544,44.6659 L89.7544,37.7959 L90.5984,37.7959 Z M115.1196,39.0355 C114.8096,39.0355 114.5336,39.0865 114.2916,39.1865 C114.0496,39.2875 113.8466,39.4315 113.6806,39.6205 C113.5146,39.8095 113.3876,40.0395 113.2986,40.3115 C113.2096,40.5835 113.1656,40.8885 113.1656,41.2285 C113.1656,41.5715 113.2096,41.8785 113.2986,42.1505 C113.3876,42.4215 113.5146,42.6525 113.6806,42.8405 C113.8466,43.0295 114.0496,43.1735 114.2916,43.2725 C114.5336,43.3715 114.8096,43.4205 115.1196,43.4205 C115.4266,43.4205 115.7006,43.3715 115.9406,43.2725 C116.1806,43.1735 116.3836,43.0295 116.5496,42.8405 C116.7156,42.6525 116.8426,42.4215 116.9316,42.1505 C117.0206,41.8785 117.0646,41.5715 117.0646,41.2285 C117.0646,40.8885 117.0206,40.5835 116.9316,40.3115 C116.8426,40.0395 116.7156,39.8095 116.5496,39.6205 C116.3836,39.4315 116.1806,39.2875 115.9406,39.1865 C115.7006,39.0865 115.4266,39.0355 115.1196,39.0355 Z M129.7195,39.2105 C129.6715,39.4025 129.6205,39.5795 129.5675,39.7435 C129.5135,39.9065 129.4625,40.0485 129.4155,40.1675 L128.7795,42.0395 L130.6725,42.0395 L130.0315,40.1585 C129.9845,40.0385 129.9335,39.8985 129.8805,39.7365 C129.8445,39.6285 129.8085,39.5147222 129.772796,39.3948704 L129.7195,39.2105 L129.7195,39.2105 Z M99.824,39.2105 C99.776,39.4025 99.726,39.5795 99.672,39.7435 C99.618,39.9065 99.568,40.0485 99.52,40.1675 L98.885,42.0395 L100.777,42.0395 L100.137,40.1585 C100.089,40.0385 100.039,39.8985 99.985,39.7365 C99.949,39.6285 99.913,39.5147222 99.8772963,39.3948704 L99.824,39.2105 L99.824,39.2105 Z M85.7649,38.9885 L85.1209,38.9885 L85.1209,41.0255 L85.7649,41.0255 C85.9839,41.0255 86.1699,40.9985 86.3229,40.9435 C86.4759,40.8885 86.6019,40.8115 86.6999,40.7145 C86.7979,40.6175 86.8689,40.5035 86.9129,40.3725 C86.9579,40.2425 86.9799,40.1015 86.9799,39.9505 C86.9799,39.6485 86.8809,39.4135 86.6829,39.2435 C86.4859,39.0735 86.1799,38.9885 85.7649,38.9885 Z M46.8835,24.9042 L46.9312037,25.5008296 C46.9572778,25.9003111 46.9715,26.3032 46.9715,26.7092 C46.9715,31.1322 45.4615,35.2042 42.9275,38.4462 C42.8135,38.4652 42.6995,38.4832 42.5835,38.4982 C42.3669,38.527 42.15678,38.54604 41.952972,38.556184 L41.651973,38.564836 C40.96059,38.56996 40.3455,38.4714 39.7995,38.3062 C42.5395,35.4852 44.2915,31.7112 44.4945,27.5302 C44.8625,26.0152 46.1885,25.2222 46.8835,24.9042 L46.8835,24.9042 Z M8.7842,24.9042 C9.4792,25.2222 10.8052,26.0152 11.1732,27.5302 C11.3762,31.7112 13.1282,35.4852 15.8682,38.3062 C15.4002,38.4478 14.88144,38.54044 14.307384,38.560792 L14.015727,38.564836 C13.71942,38.56264 13.4091,38.5414 13.0842,38.4982 C12.9682,38.4832 12.8542,38.4652 12.7402,38.4462 C10.2062,35.2042 8.6962,31.1322 8.6962,26.7092 C8.6962,26.1002 8.7282,25.4982 8.7842,24.9042 Z M50.5566,23.8146 L50.6282019,24.3282574 C50.7471833,25.1871 50.8576,26.0596 50.8576,26.9446 C50.8576,27.8906 50.9636,29.1336 50.4946,31.2066 C50.2306,32.3736 49.9696,32.9236 49.7196,33.4806 C48.6096,35.9486 46.9866,37.2616 44.4836,38.0856 C46.6316,34.8996 47.8976,31.2856 47.8846,27.1626 C47.8846,27.0006 47.8816,27.0616 47.8796,27.0006 C47.9406,25.3626 49.9996,23.8986 50.5566,23.8146 L50.5566,23.8146 Z M5.1111,23.8146 C5.6681,23.8986 7.7271,25.3626 7.7881,27.0006 C7.7861,27.0616 7.7831,27.0006 7.7831,27.1626 C7.7706,31.1270231 8.9406074,34.620847 10.9401906,37.7160806 L11.1841,38.0856 L11.1841,38.0856 C8.6811,37.2616 7.0581,35.9486 5.9481,33.4806 C5.6981,32.9236 5.4371,32.3736 5.1731,31.2066 C4.7041,29.1336 4.8101,27.8906 4.8101,26.9446 C4.8101,25.8826 4.9691,24.8386 5.1111,23.8146 Z M43.4529,25.5704 L43.4772704,25.9474741 C43.4909,26.1996222 43.4989,26.4534 43.4989,26.7094 C43.4989,31.0864 41.6929,35.0444 38.7849,37.8904 C37.8989,37.4214 37.2709,36.7874 36.8529,36.2534 C38.8379,34.3744 40.2359,31.8914 40.7509,29.1004 L40.7509,29.1004 L40.8889,28.3204 C41.1929,26.1074 42.7299,25.8714 43.4529,25.5704 L43.4529,25.5704 Z M12.2148,25.5704 C12.9378,25.8714 14.4748,26.1074 14.7788,28.3204 L14.9168,29.1004 C15.4318,31.8914 16.8298,34.3744 18.8148,36.2534 C18.4386,36.734 17.89149,37.2956 17.140665,37.745015 L16.8828,37.8904 L16.8828,37.8904 C13.9748,35.0444 12.1688,31.0864 12.1688,26.7094 C12.1688,26.3254 12.1868,25.9464 12.2148,25.5704 Z M100.9468,6.1462 C102.5538,6.1462 104.0528,6.4032 105.4028,6.9092 C106.7148,7.4002 107.8688,8.1052 108.8368,9.0022 L108.8368,9.0022 L108.8388,9.0002 L108.9188,9.0762 C108.9278,9.0842 108.9378,9.0932 108.9468,9.1012 L108.9468,9.1012 L108.9478,9.1042 L109.1618,9.3072 C109.2318,9.3762 109.2758,9.4712 109.2758,9.5762 C109.2758,9.6442 109.2568,9.7072 109.2248,9.7622 L109.2248,9.7622 L109.2258,9.7622 L109.2078,9.7952 L109.0868,10.0342 L108.0318,12.0902 C107.8318,12.4182 107.6238,12.6512 107.3878,12.8162 C107.1088,13.0132 106.7728,13.1132 106.3898,13.1132 C105.9988,13.1132 105.5898,12.9692 105.1728,12.6872 C104.9028,12.5042 104.5618,12.2972 104.1608,12.0722 C103.7798,11.8582 103.3178,11.6552 102.7868,11.4702 C102.2958,11.2992 101.6898,11.2122 100.9838,11.2122 C100.3338,11.2122 99.7628,11.2912 99.2858,11.4472 C98.8288,11.5972 98.4448,11.8052 98.1448,12.0642 C97.8518,12.3182 97.6388,12.6072 97.4938,12.9462 C97.4917155,12.9510873 97.4896455,12.9559828 97.4875899,12.9608863 C97.3435738,13.3048104 97.2708,13.6874505 97.2708,14.0992 C97.2708,14.5952 97.3898,14.9862 97.6358,15.2932 C97.9248,15.6552 98.3198,15.9732 98.8088,16.2392 C99.3438,16.5312 99.9688,16.7912 100.6678,17.0132 C101.4078,17.2482 102.1838,17.5062 102.9738,17.7782 C103.7708,18.0522 104.5648,18.3692 105.3328,18.7192 C106.1488,19.0912 106.8858,19.5712 107.5248,20.1462 L107.5248,20.1462 L107.765054,20.3738777 C108.312175,20.9200281 108.76455,21.569825 109.1128,22.3092 C109.5148,23.1642 109.7188,24.2022 109.7188,25.3952 L109.7178,25.3652 L109.7188,25.3952 C109.7188,25.4753114 109.717904,25.5551806 109.716114,25.6347994 C109.689667,26.8086993 109.468924,27.9277807 109.0588,28.9662 C109.012225,29.0840086 108.963351,29.2003959 108.912199,29.3153279 C108.477946,30.2910676 107.879509,31.1619639 107.1298,31.9072 C106.2918,32.7402 105.2498,33.4032 104.0338,33.8792 C102.8268,34.3512 101.4418,34.5902 99.9168,34.5902 C99.0228,34.5902 98.1378,34.5022 97.2878,34.3282 C96.4398,34.1542 95.6198,33.9062 94.8508,33.5912 C94.0768,33.2742 93.3408,32.8842 92.6638,32.4302 C92.0008,31.9882 91.4008,31.4872 90.8738,30.9452 L90.8738,30.9452 L90.8728,30.9452 L90.8598,30.9312 C90.8588,30.9302 90.8578,30.9292 90.8558,30.9282 L90.8558,30.9282 L90.8568,30.9282 L90.8558,30.9282 L90.6318,30.6922 L90.6318,30.6922 L90.6158,30.6762 L90.5998,30.6582 C90.5478,30.5922 90.5138,30.5102 90.5138,30.4202 C90.5138,30.3712 90.5288,30.3212 90.5488,30.2732 L90.5488,30.2732 L90.5648,30.2402 C90.5768,30.2162 90.5898,30.1932 90.6058,30.1702 L90.6008,30.1762 L90.6058,30.1702 L90.6578,30.0802 L90.6768,30.0502 L90.7068,30.0002 L90.7218,29.9772 L91.7188,28.3392 L91.9748,27.9212 C92.1228,27.6916 92.30216,27.50232 92.511856,27.353872 L92.5758,27.3122 L92.6748,27.2502 C92.906,27.119 93.15768,27.03964 93.425232,27.013144 L93.6288,27.0032 C94.0828,27.0032 94.5568,27.1882 95.0368,27.5542 C95.3598,27.8012 95.7598,28.0782 96.2268,28.3772 C96.6648,28.6582 97.2078,28.9232 97.8408,29.1652 C98.4348,29.3922 99.1698,29.5072 100.0278,29.5072 C101.3818,29.5072 102.4238,29.1912 103.1258,28.5692 C103.8118,27.9602 104.1448,27.1262 104.1448,26.0172 C104.1448,25.4472 104.0188,24.9912 103.7678,24.6602 L103.7938,24.6992 L103.7678,24.6602 C103.520943,24.3353429 103.199147,24.0501592 102.80808,23.8096869 L102.6068,23.6932 C102.0758,23.4042 101.4558,23.1552 100.7648,22.9522 C100.0128,22.7322 99.2388,22.4932 98.4648,22.2422 C97.6688,21.9852 96.8748,21.6792 96.1058,21.3342 C95.2838,20.9662 94.5418,20.4762 93.8998,19.8782 C93.2438,19.2682 92.7108,18.5082 92.3148,17.6182 C91.9168,16.7262 91.7148,15.6152 91.7148,14.3182 C91.7148,13.2702 91.9238,12.2412 92.3358,11.2622 C92.7488,10.2792 93.3588,9.3962 94.1488,8.6382 C94.9358,7.8822 95.9148,7.2712 97.0588,6.8222 L96.6878,6.9752 L97.0588,6.8222 C98.0848,6.4181 99.24769,6.19382 100.519039,6.153005 Z M77.3318,6.4388 C78.0008,6.4388 78.6098,6.8338 78.8838,7.4448 C78.8998,7.4798 78.9128,7.5158 78.9268,7.5518 L78.9268,7.5518 L89.5958,34.2978 L85.1288,34.2978 C84.5668,34.2978 84.0928,34.1448 83.7198,33.8418 C83.3918,33.5748 83.1378,33.2408 82.9668,32.8478 L82.9668,32.8478 L82.9538,32.8178 L80.9348,27.4988 L70.6038,27.4988 L68.5858,32.8138 C68.4368,33.1848 68.1898,33.5168 67.8488,33.8048 C67.4608,34.1318 66.9828,34.2978 66.4288,34.2978 L66.4288,34.2978 L61.9618,34.2978 L72.6028,7.6218 C72.6198,7.5618 72.6508,7.4838 72.6918,7.3998 C72.9748,6.8168 73.5748,6.4388 74.2218,6.4388 L74.2218,6.4388 Z M125.6499,6.4387 C126.3189,6.4387 126.9279,6.8337 127.2019,7.4447 C127.2169,7.4797 127.2319,7.5157 127.2449,7.5527 L127.2449,7.5527 L137.9139,34.2977 L133.4469,34.2977 C132.8849,34.2977 132.4109,34.1447 132.0379,33.8417 C131.7099,33.5747 131.4559,33.2407 131.2849,32.8477 L131.2849,32.8477 L131.2719,32.8177 L129.2529,27.4987 L118.9219,27.4987 L116.9039,32.8137 C116.7549,33.1847 116.5079,33.5167 116.1669,33.8047 C115.7789,34.1317 115.3009,34.2977 114.7459,34.2977 L114.7459,34.2977 L110.2799,34.2977 L120.9209,7.6217 C120.9379,7.5617 120.9689,7.4837 121.0099,7.4007 C121.2919,6.8167 121.8929,6.4387 122.5399,6.4387 L122.5399,6.4387 Z M27.7129,16.974 C33.1209,16.974 37.5059,21.332 37.5059,26.709 L37.5028,26.4862 L39.794,26.487 L39.794,26.931 L15.75,26.931 L15.75,26.487 L17.9214085,26.4864457 C18.0404157,21.2122612 22.3787254,16.974 27.7129,16.974 Z M8.74422885,23.0557376 L16.7460402,24.3953834 L16.7000497,24.6295169 L16.5987442,25.1879111 L8.59978368,23.8482099 L8.65955783,23.4983662 L8.74422885,23.0557376 Z M46.6621693,22.960228 L46.7382768,23.3515474 L46.8106129,23.7523806 L38.8089885,25.0923503 L38.770268,24.8641028 L38.7409719,24.7000454 L38.7087424,24.535969 L38.6603324,24.3002333 L46.6621693,22.960228 Z M13.0991774,21.1641089 L17.0741774,22.5781089 L17.1439783,22.727959 L17.0235141,23.0574932 L16.8754226,23.1276911 L12.9004226,21.7136911 L12.8300579,21.565385 L12.9520575,21.2316919 L13.0991774,21.1641089 Z M42.2964982,21.0918176 L42.4436002,21.1592823 L42.5691521,21.4907393 L42.4992774,21.6403911 L38.5242774,23.0543911 L38.3764974,22.9850529 L38.3168178,22.8222912 L38.2524428,22.6585412 L38.3214982,22.5068176 L42.2964982,21.0918176 Z M75.7778,13.8688 L75.6938,14.104175 L75.6938,14.104175 L75.6128,14.3268 L72.3638,22.8898 L79.1938,22.8898 L75.9458,14.3148 C75.8908,14.1748 75.8348,14.0258 75.7778,13.8688 L75.7778,13.8688 Z M124.0959,13.8687 L124.0119,14.104075 L124.0119,14.104075 L123.9309,14.3267 L120.6819,22.8897 L127.5109,22.8897 L124.2639,14.3147 C124.2089,14.1747 124.1519,14.0257 124.0959,13.8687 L124.0959,13.8687 Z M11.1848384,16.80701 L18.1928929,20.78705 L17.9793122,21.1427807 L17.7791582,21.4923462 L10.771191,17.5123557 L10.8882762,17.3099372 L11.1848384,16.80701 Z M44.2079097,16.7573008 L44.3244526,16.9502661 L44.6250032,17.4608457 L37.6160475,21.4418561 L37.449174,21.1487586 L37.2024063,20.7370974 L44.2079097,16.7573008 Z M27.7126,-0.0028 C37.8416,-0.0028 46.6716,5.5242 51.3206,13.7092 C52.6336,16.0222 53.6126,18.5472 54.1936,21.2192 C53.2416,21.1432 50.9816,20.3662 50.4066,18.8122 C50.0576,17.8472 49.6486,16.9112 49.1826,16.0082 C45.1866,8.2612 37.0726,2.9602 27.7126,2.9602 C18.4076,2.9602 10.3346,8.2002 6.3146,15.8722 C5.7896,16.8742 5.3336,17.9172 4.9536,18.9952 C4.4406,20.4762 2.1466,21.1672 1.2286,21.2302 C1.8096,18.5512 2.7906,16.0212 4.1076,13.7032 C8.7576,5.5212 17.5856,-0.0028 27.7126,-0.0028 Z M15.9178907,16.5187275 L19.1438907,19.2027275 L19.1573061,19.367934 L18.9276467,19.6373613 L18.7645066,19.6520703 L15.5375066,16.9670703 L15.5226666,16.8035424 L15.7560401,16.5319281 L15.9178907,16.5187275 Z M39.4788957,16.4870388 L39.6401666,16.4995488 L39.8750704,16.7695878 L39.8612934,16.9343703 L36.6342934,19.6193703 L36.4715688,19.6051548 L36.3574248,19.470317 L36.2406748,19.336442 L36.2538957,19.1710388 L39.4788957,16.4870388 Z M15.6217927,11.7615684 L20.7953333,17.9097264 L20.6126916,18.0586191 L20.4408185,18.2027054 L20.170011,18.439277 L14.9963539,12.2922421 L15.2139182,12.1038719 L15.6217927,11.7615684 Z M39.7806949,11.7448034 L40.0918725,12.0029598 L40.4078561,12.2723944 L35.2351634,18.4206062 L34.8709523,18.1076287 L34.6069829,17.8942267 L39.7806949,11.7448034 Z M19.9943831,13.0632235 L20.151813,13.1063937 L22.244813,16.7393937 L22.2014402,16.8982505 L21.8939614,17.0753742 L21.7347751,17.0331855 L19.6427751,13.4001855 L19.6833296,13.2430047 L19.8999408,13.1166222 L19.9943831,13.0632235 Z M35.4166402,13.0555495 L35.7271614,13.2344258 L35.769013,13.3924063 L33.676013,17.0254063 L33.5165893,17.0674276 L33.3654499,16.9783057 L33.2103249,16.8904307 L33.1669751,16.7316145 L35.2589751,13.0986145 L35.4166402,13.0555495 Z M21.51325,8.5226635 L24.2304999,16.1001818 L23.8534305,16.234168 L23.4651154,16.3825724 L20.746549,8.80434299 L21.51325,8.5226635 Z M33.90525,8.5204635 L34.2221764,8.63480882 L34.6713375,8.80385294 L31.9527432,16.3821603 L31.6311833,16.2561995 L31.1880001,16.0979818 L33.90525,8.5204635 Z M25.1590911,11.2460515 L25.2923264,11.3408665 L26.0043264,15.4868665 L25.9102681,15.6207156 L25.7404105,15.6508392 L25.5692855,15.6843392 L25.4326728,15.5901289 L24.7206728,11.4431289 L24.8130196,11.3096015 L25.1590911,11.2460515 Z M30.2652875,11.2459701 L30.6098241,11.3092524 L30.7024272,11.4428289 L29.9904272,15.5898289 L29.8538145,15.6840392 L29.6847069,15.6509156 L29.5128319,15.6204156 L29.4187736,15.4865665 L30.1307736,11.3405665 L30.2652875,11.2459701 Z M27.8566423,7.4885548 L28.0836,7.49348866 L28.0836,15.5865983 L27.8465577,15.5814452 L27.7532668,15.5775169 L27.3416,15.5865983 L27.3416,7.49348866 L27.5685577,7.4885548 L27.8566423,7.4885548 Z" id="Combined-Shape" fill="#FFFFFF"></path>
    </g>
</svg>