<svg id="Layer_1" data-name="Layer 1" xmlns="http://www.w3.org/2000/svg" viewBox="0 0 157.54 114.76"><defs><style>.cls-1{fill:#dff4fe;}.cls-2,.cls-5,.cls-7{fill:none;}.cls-2,.cls-5,.cls-6{stroke:#29b6f6;stroke-width:1.5px;}.cls-2{stroke-linecap:round;stroke-linejoin:round;}.cls-3,.cls-6{fill:#fff;}.cls-4{fill:#abe1ed;}.cls-7{stroke:#b4dde8;stroke-linecap:square;}.cls-8{fill:#29b6f6;}</style></defs><title>Par-2</title><path id="Fill-1" class="cls-1" d="M141.56,63.8a63.65,63.65,0,0,0-127.3,0v0A62.49,62.49,0,0,0,20,90.1H136a63.93,63.93,0,0,0,5.6-26.3" transform="translate(0.75 -0.14)"/><path id="Stroke-3" class="cls-2" d="M15.06,90.1h124.2" transform="translate(0.75 -0.14)"/><path id="Stroke-5" class="cls-2" d="M7.86,90.1h4" transform="translate(0.75 -0.14)"/><path id="Stroke-7" class="cls-2" d="M142.36,90.1h4" transform="translate(0.75 -0.14)"/><path id="Fill-39" class="cls-3" d="M117.23,26.4h0a1.71,1.71,0,0,1,2.1-1.2l35.4,10a1.75,1.75,0,0,1,1.3,1.9l-5.7,20h0a1.71,1.71,0,0,1-2.1,1.2l-35.4-10a1.71,1.71,0,0,1-1.16-2.1Z" transform="translate(0.75 -0.14)"/><path id="Fill-41" class="cls-3" d="M117.27,41.2l.15,0a3.94,3.94,0,0,1,2.55,5l23.2,6.6a4.08,4.08,0,0,1,5-2.8l2.2-7.7-.1,0a4,4,0,0,1-2.7-5l-23.1-6.6a4.09,4.09,0,0,1-5,2.8l-2.2,7.7" transform="translate(0.75 -0.14)"/><path id="Fill-43" class="cls-4" d="M130,40.6a4.15,4.15,0,0,1,5-2.8,4.05,4.05,0,1,1-5,2.8" transform="translate(0.75 -0.14)"/><path id="Stroke-45" class="cls-2" d="M135,37.8a4.05,4.05,0,1,1-5,2.8A4.15,4.15,0,0,1,135,37.8Z" transform="translate(0.75 -0.14)"/><path id="Stroke-47" class="cls-2" d="M117.42,41.25a3.94,3.94,0,0,1,2.55,5l23.2,6.6a4.08,4.08,0,0,1,5-2.8l2.2-7.7-.1,0a4,4,0,0,1-2.7-5l-23.1-6.6a4.09,4.09,0,0,1-5,2.8l-2.2,7.7Z" transform="translate(0.75 -0.14)"/><path id="Stroke-49" class="cls-2" d="M117.23,26.4h0a1.71,1.71,0,0,1,2.1-1.2l35.4,10a1.75,1.75,0,0,1,1.3,1.9l-5.7,20h0a1.71,1.71,0,0,1-2.1,1.2l-35.4-10a1.71,1.71,0,0,1-1.16-2.1Z" transform="translate(0.75 -0.14)"/><path id="Stroke-55" class="cls-2" d="M119.66,46.1l9.6,2.8" transform="translate(0.75 -0.14)"/><path id="Fill-51" class="cls-3" d="M9,57.9a3.33,3.33,0,0,1-4.1-2.3L.12,38.9a3.34,3.34,0,0,1,2.3-4.1l28.3-8.1a3.33,3.33,0,0,1,4.1,2.3l4.8,16.7a3.32,3.32,0,0,1-2.3,4.1L9.06,57.9" transform="translate(0.75 -0.14)"/><polygon id="Fill-53" class="cls-4" points="1.11 39.36 35.81 29.36 36.91 33.26 2.21 43.26 1.11 39.36"/><polygon id="Fill-57" class="cls-3" points="7.21 45.96 34.21 38.26 35.31 42.06 8.31 49.86 7.21 45.96"/><path id="Stroke-59" class="cls-2" d="M9,57.91A3.34,3.34,0,0,1,4.92,55.6L.12,38.9a3.34,3.34,0,0,1,2.3-4.1l28.3-8.1a3.33,3.33,0,0,1,4.1,2.3l4.8,16.7a3.32,3.32,0,0,1-2.3,4.1L9.06,57.9Z" transform="translate(0.75 -0.14)"/><polygon id="Stroke-61" class="cls-2" points="1.11 39.36 35.81 29.36 36.91 33.26 2.21 43.26 1.11 39.36"/><polygon id="Stroke-63" class="cls-2" points="7.21 45.96 34.21 38.26 35.31 42.06 8.31 49.86 7.21 45.96"/><path id="Fill-65" class="cls-4" d="M91.56,26.2a13.4,13.4,0,1,1-13.4-13.4,13.4,13.4,0,0,1,13.4,13.4h0" transform="translate(0.75 -0.14)"/><path id="Fill-67" class="cls-3" d="M78.26,12.8a13.4,13.4,0,0,0-13.4,13.4h0a13.63,13.63,0,0,0,3.9,9.5l18.9-18.9a12.89,12.89,0,0,0-9.4-4" transform="translate(0.75 -0.14)"/><path id="Stroke-69" class="cls-5" d="M91.56,26.2a13.4,13.4,0,1,1-13.4-13.4,13.4,13.4,0,0,1,13.4,13.4Z" transform="translate(0.75 -0.14)"/><path id="Stroke-71" class="cls-2" d="M78.26,32.9v1.7" transform="translate(0.75 -0.14)"/><path id="Stroke-73" class="cls-2" d="M78.26,17.9v1.7" transform="translate(0.75 -0.14)"/><path id="Stroke-75" class="cls-2" d="M74.86,29.6a3.3,3.3,0,1,0,3.3-3.3,3.3,3.3,0,1,1,3.3-3.3" transform="translate(0.75 -0.14)"/><path id="Fill-68" class="cls-1" d="M115.56,110.5c0,2.4-16.7,4.4-37.3,4.4s-37.3-2-37.3-4.4,16.7-4.4,37.3-4.4,37.3,1.9,37.3,4.4" transform="translate(0.75 -0.14)"/><path id="Fill-27" class="cls-3" d="M105.56,108.7H50.86a3.76,3.76,0,0,1-3.7-3.7V67.9h62.1V105a3.69,3.69,0,0,1-3.68,3.7h0" transform="translate(0.75 -0.14)"/><path id="Stroke-29" class="cls-2" d="M105.56,108.7H50.86a3.76,3.76,0,0,1-3.7-3.7V67.9h62.1V105a3.69,3.69,0,0,1-3.68,3.7Z" transform="translate(0.75 -0.14)"/><path id="Fill-31" class="cls-3" d="M109.26,67.9H47.16V58.7A3.69,3.69,0,0,1,50.84,55h54.62a3.76,3.76,0,0,1,3.7,3.7v9.2Z" transform="translate(0.75 -0.14)"/><circle id="Oval" class="cls-6" cx="54.71" cy="61.26" r="2.2"/><circle id="Oval-Copy" class="cls-6" cx="62.01" cy="61.26" r="2.2"/><circle id="Oval-Copy-2" class="cls-6" cx="69.21" cy="61.26" r="2.2"/><path id="Line" class="cls-7" d="M51.76,102.6h52.3" transform="translate(0.75 -0.14)"/><path id="Line-Copy" class="cls-7" d="M51.76,93.8h52.3" transform="translate(0.75 -0.14)"/><path id="Line-Copy-2" class="cls-7" d="M51.76,85.1h52.3" transform="translate(0.75 -0.14)"/><path id="Line-Copy-3" class="cls-7" d="M51.76,76.4h52.3" transform="translate(0.75 -0.14)"/><polyline id="Path-2" class="cls-5" points="101.11 102.46 93.91 92.26 85.21 98.16 77.91 85.06 70.61 92.26 61.91 79.26 59.01 83.56 53.21 75.56"/><polygon id="Rectangle-3" class="cls-8" points="103.05 96.28 101.93 103.33 94.92 102.13 103.05 96.28"/><path id="Stroke-33" class="cls-2" d="M109.26,67.9H47.16V58.7A3.69,3.69,0,0,1,50.84,55h54.62a3.76,3.76,0,0,1,3.7,3.7Z" transform="translate(0.75 -0.14)"/></svg>