<svg xmlns="http://www.w3.org/2000/svg" viewBox="0 0 145 110.89"><defs><style>.cls-1{fill:#dff4fe;isolation:isolate;}.cls-2,.cls-5{fill:none;stroke:#29b6f6;stroke-linejoin:round;stroke-width:1.5px;}.cls-2{stroke-linecap:round;}.cls-3{fill:#fff;}.cls-4{fill:#abe1ed;}</style></defs><title>Borrowers</title><g id="Layer_2" data-name="Layer 2"><g id="Layer_1-2" data-name="Layer 1"><path id="Fill-1" class="cls-1" d="M137.79,65.75A65.46,65.46,0,1,0,12.71,92.89H132a65.71,65.71,0,0,0,5.84-27.14"/><path id="Stroke-3" class="cls-2" d="M8.41,92.05H136.05"/><path id="Stroke-7" class="cls-2" d="M140.15,92.05h4.1"/><path id="Stroke-5" class="cls-2" d="M.75,92.05H4.84"/><path id="Fill-56" class="cls-3" d="M54.84,79.25a3.1,3.1,0,0,0,6.19,0v-3H54.84Z"/><path id="Stroke-57" class="cls-2" d="M54.84,79.25a3.1,3.1,0,0,0,6.19,0v-3H54.84Z"/><path id="Fill-58" class="cls-3" d="M84.05,76.22h6.19a.88.88,0,0,0,.89-.87V60.61a18.59,18.59,0,0,0-37.18,0V75.35a.88.88,0,0,0,.89.87H61l-1.77,26H85.82Z"/><path id="Stroke-59" class="cls-2" d="M84.05,76.22h6.19a.88.88,0,0,0,.89-.87V60.61a18.59,18.59,0,0,0-37.18,0V75.35a.88.88,0,0,0,.89.87H61l-1.77,26H85.82Z"/><path id="Fill-60" class="cls-3" d="M61,76.22V56.28"/><path id="Stroke-61" class="cls-2" d="M61,76.22V56.28"/><path id="Fill-63" class="cls-3" d="M84.05,76.22V56.28"/><path id="Stroke-64" class="cls-2" d="M84.05,76.22V56.28"/><path id="Fill-66" class="cls-3" d="M84.05,79.25a3.1,3.1,0,0,0,6.19,0v-3H84.05Z"/><path id="Stroke-67" class="cls-2" d="M84.05,79.25a3.1,3.1,0,0,0,6.19,0v-3H84.05Z"/><path id="Fill-68" class="cls-1" d="M95.55,108.29c0,1.44-10.3,2.6-23,2.6s-23-1.16-23-2.6,10.3-2.6,23-2.6,23,1.17,23,2.6"/><path id="Fill-69" class="cls-3" d="M84.46,106.56a1.78,1.78,0,0,0,1.53-.87A1.68,1.68,0,0,0,86,104a5.31,5.31,0,0,0-4.6-2.6h-.88a5.31,5.31,0,0,0-4.6,2.6,1.7,1.7,0,0,0,0,1.73,1.79,1.79,0,0,0,1.54.87Z"/><path id="Stroke-70" class="cls-2" d="M84.46,106.56a1.78,1.78,0,0,0,1.53-.87A1.68,1.68,0,0,0,86,104a5.31,5.31,0,0,0-4.6-2.6h-.88a5.31,5.31,0,0,0-4.6,2.6,1.7,1.7,0,0,0,0,1.73,1.79,1.79,0,0,0,1.54.87Z"/><path id="Fill-71" class="cls-3" d="M67.64,106.56a1.76,1.76,0,0,0,1.53-.87,1.68,1.68,0,0,0,0-1.73,5.3,5.3,0,0,0-4.6-2.6h-.88a5.31,5.31,0,0,0-4.6,2.6,1.68,1.68,0,0,0,0,1.73,1.76,1.76,0,0,0,1.53.87Z"/><path id="Stroke-72" class="cls-2" d="M67.64,106.56a1.76,1.76,0,0,0,1.53-.87,1.68,1.68,0,0,0,0-1.73,5.3,5.3,0,0,0-4.6-2.6h-.88a5.31,5.31,0,0,0-4.6,2.6,1.68,1.68,0,0,0,0,1.73,1.76,1.76,0,0,0,1.53.87Z"/><path id="Stroke-73" class="cls-2" d="M61.45,101.8c.75.86,2.24,2.81,2.24,4.76,0-2.6,3.54-4.34,3.54-4.34"/><path id="Stroke-74" class="cls-2" d="M83.63,101.8c-.74.86-2.24,2.81-2.24,4.76,0-2.6-3.54-4.34-3.54-4.34"/><path id="Fill-80" class="cls-3" d="M78.42,43.35a18.67,18.67,0,0,0-11.76,0,6.19,6.19,0,0,0,11.76,0"/><path id="Fill-11" class="cls-3" d="M80.65,45.8a8,8,0,0,0,8.07-7.94V22A16,16,0,0,0,71.5,6.17,16.34,16.34,0,0,0,56.43,22.54V37.86A8,8,0,0,0,64.5,45.8Z"/><path id="Stroke-13" class="cls-2" d="M80.65,45.8a8,8,0,0,0,8.07-7.94V22A16,16,0,0,0,71.5,6.17,16.34,16.34,0,0,0,56.43,22.54V37.86A8,8,0,0,0,64.5,45.8Z"/><polygon id="Fill-33" class="cls-3" points="77.45 44.65 72.61 54.17 67.76 44.65 67.76 40.68 77.45 40.68 77.45 44.65"/><polygon id="Stroke-35" class="cls-2" points="77.45 44.65 72.61 54.17 67.76 44.65 67.76 40.68 77.45 40.68 77.45 44.65"/><path id="Fill-45" class="cls-3" d="M86.3,25.94V22.77c0-.38,0-.74-.06-1.1A14.73,14.73,0,0,1,79,23.56a14.62,14.62,0,0,1-11.11-5.08c-1.21,3.44-4.09,5.87-7.46,5.87a6.63,6.63,0,0,1-1.61-.19v1.78a2.39,2.39,0,0,0-2.42,2.38v.79a2.39,2.39,0,0,0,2.42,2.38l.22,0a13.76,13.76,0,0,0,27,0l.22,0a2.39,2.39,0,0,0,2.42-2.38v-.79a2.39,2.39,0,0,0-2.42-2.38"/><path id="Stroke-47" class="cls-2" d="M86.3,25.94V22.77c0-.38,0-.74-.06-1.1A14.73,14.73,0,0,1,79,23.56a14.62,14.62,0,0,1-11.11-5.08c-1.21,3.44-4.09,5.87-7.46,5.87a6.63,6.63,0,0,1-1.61-.19v1.78a2.39,2.39,0,0,0-2.42,2.38v.79a2.39,2.39,0,0,0,2.42,2.38l.22,0a13.76,13.76,0,0,0,27,0l.22,0a2.39,2.39,0,0,0,2.42-2.38v-.79A2.39,2.39,0,0,0,86.3,25.94Z"/><path id="Fill-49" class="cls-4" d="M66,31.17a1.61,1.61,0,1,1-1.61-1.59A1.6,1.6,0,0,1,66,31.17"/><path id="Fill-51" class="cls-4" d="M82.33,31.17a1.62,1.62,0,1,1-1.61-1.59,1.6,1.6,0,0,1,1.61,1.59"/><path id="Stroke-53" class="cls-2" d="M67.76,34.52a6,6,0,0,0,8.08,0"/><path id="Stroke-55" class="cls-2" d="M79.36,27.2a2.21,2.21,0,0,0-4,0"/><path id="Stroke-57-2" data-name="Stroke-57" class="cls-2" d="M69.28,27.2a2.3,2.3,0,0,0-2-1.32,2.33,2.33,0,0,0-2,1.32"/><path id="Fill-19" class="cls-3" d="M125.17,23a2.29,2.29,0,0,0-.87.17,4,4,0,0,0-8,0,2.29,2.29,0,0,0-.87-.17,2.43,2.43,0,0,0,0,4.85h9.69a2.43,2.43,0,0,0,0-4.85"/><path id="Stroke-21" class="cls-5" d="M125.17,23a2.29,2.29,0,0,0-.87.17,4,4,0,0,0-8,0,2.29,2.29,0,0,0-.87-.17,2.43,2.43,0,0,0,0,4.85h9.69a2.43,2.43,0,0,0,0-4.85Z"/><path id="Stroke-25" class="cls-5" d="M125.17,23a2.29,2.29,0,0,0-.87.17,4,4,0,0,0-8,0,2.29,2.29,0,0,0-.87-.17,2.43,2.43,0,0,0,0,4.85h9.69a2.43,2.43,0,0,0,0-4.85Z"/><path id="Fill-19-Copy" class="cls-3" d="M32.43,25.9a3.81,3.81,0,0,0-1.27.23,5.92,5.92,0,0,0-11.63,0,3.87,3.87,0,0,0-1.28-.23,3.43,3.43,0,1,0,0,6.85H32.43a3.43,3.43,0,1,0,0-6.85"/><path id="Stroke-21-Copy" class="cls-5" d="M32.43,25.9a3.81,3.81,0,0,0-1.27.23,5.92,5.92,0,0,0-11.63,0,3.87,3.87,0,0,0-1.28-.23,3.43,3.43,0,1,0,0,6.85H32.43a3.43,3.43,0,1,0,0-6.85Z"/><path id="Stroke-25-Copy" class="cls-5" d="M32.43,25.9a3.81,3.81,0,0,0-1.27.23,5.92,5.92,0,0,0-11.63,0,3.87,3.87,0,0,0-1.28-.23,3.43,3.43,0,1,0,0,6.85H32.43a3.43,3.43,0,1,0,0-6.85Z"/><path id="Fill-120" class="cls-3" d="M120.68,80.6c0,3.35-1.2,6.25-2.53,6.25s-2.54-2.9-2.54-6.25,2.54-12.15,2.54-12.15,2.53,8.79,2.53,12.15"/><path id="Stroke-121" class="cls-2" d="M120.68,80.6c0,3.35-1.2,6.25-2.53,6.25s-2.54-2.9-2.54-6.25,2.54-12.15,2.54-12.15S120.68,77.24,120.68,80.6Z"/><path id="Stroke-122" class="cls-2" d="M118.15,86.85v5.21"/><path id="Stroke-123" class="cls-2" d="M31.65,71.54a3.94,3.94,0,1,1-7.88,0"/><path id="Fill-124" class="cls-3" d="M25.23,70.08H22.31a.71.71,0,0,1-.45-.17.9.9,0,0,0,0,.23l.29,2.15a.72.72,0,0,0,.71.63H24.7a.73.73,0,0,0,.72-.63l.28-2.15a.89.89,0,0,0,0-.23.74.74,0,0,1-.46.17"/><path id="Stroke-125" class="cls-2" d="M25.23,70.08H22.31a.71.71,0,0,1-.45-.17.9.9,0,0,0,0,.23l.29,2.15a.72.72,0,0,0,.71.63H24.7a.73.73,0,0,0,.72-.63l.28-2.15a.89.89,0,0,0,0-.23A.74.74,0,0,1,25.23,70.08Z"/><path id="Fill-126" class="cls-3" d="M23.77,67a2.19,2.19,0,0,0-2.18,2.18c0,.63.32.89.72.89h2.93c.4,0,.72-.26.72-.89A2.19,2.19,0,0,0,23.77,67"/><path id="Stroke-127" class="cls-2" d="M23.77,67a2.19,2.19,0,0,0-2.18,2.18c0,.63.32.89.72.89h2.93c.4,0,.72-.26.72-.89A2.19,2.19,0,0,0,23.77,67Z"/><path id="Fill-128" class="cls-3" d="M33.11,70.08H30.19a.71.71,0,0,1-.45-.17.6.6,0,0,0,0,.23L30,72.29a.72.72,0,0,0,.71.63h1.86a.71.71,0,0,0,.71-.63l.29-2.15a.6.6,0,0,0,0-.23.69.69,0,0,1-.45.17"/><path id="Stroke-129" class="cls-2" d="M33.11,70.08H30.19a.71.71,0,0,1-.45-.17.6.6,0,0,0,0,.23L30,72.29a.72.72,0,0,0,.71.63h1.86a.71.71,0,0,0,.71-.63l.29-2.15a.6.6,0,0,0,0-.23A.69.69,0,0,1,33.11,70.08Z"/><path id="Fill-130" class="cls-3" d="M31.65,67a2.19,2.19,0,0,0-2.18,2.18c0,.63.32.89.72.89h2.92c.41,0,.72-.26.72-.89A2.19,2.19,0,0,0,31.65,67"/><path id="Stroke-131" class="cls-2" d="M31.65,67a2.19,2.19,0,0,0-2.18,2.18c0,.63.32.89.72.89h2.92c.41,0,.72-.26.72-.89A2.19,2.19,0,0,0,31.65,67Z"/><path id="Stroke-132" class="cls-2" d="M27.71,75.49V92.05"/></g></g></svg>